HIERARCHY
ROOT Hips
{
	OFFSET -0.0000 111.0000 0.0000
	CHANNELS 6 Xposition Yposition Zposition Xrotation Yrotation Zrotation
	JOINT RightUpperLeg
	{
		OFFSET -10.5000 -8.8000 0.0000
		CHANNELS 3 Xrotation Yrotation Zrotation
		JOINT RightLowerLeg
		{
			OFFSET -0.0000 -45.6000 0.0000
			CHANNELS 3 Xrotation Yrotation Zrotation
			JOINT RightFoot
			{
				OFFSET -0.0000 -46.7000 0.0000
				CHANNELS 3 Xrotation Yrotation Zrotation
				JOINT RightToe
				{
					OFFSET -0.0000 -8.0000 12.1000
					CHANNELS 3 Xrotation Yrotation Zrotation
					End Site
					{
						OFFSET -0.0000 0.0000 2.4200
					}
				}
			}
		}
	}
	JOINT LeftUpperLeg
	{
		OFFSET 10.5000 -8.8000 0.0000
		CHANNELS 3 Xrotation Yrotation Zrotation
		JOINT LeftLowerLeg
		{
			OFFSET -0.0000 -45.6000 0.0000
			CHANNELS 3 Xrotation Yrotation Zrotation
			JOINT LeftFoot
			{
				OFFSET -0.0000 -46.7000 0.0000
				CHANNELS 3 Xrotation Yrotation Zrotation
				JOINT LeftToe
				{
					OFFSET -0.0000 -8.0000 12.1000
					CHANNELS 3 Xrotation Yrotation Zrotation
					End Site
					{
						OFFSET -0.0000 0.0000 2.4200
					}
				}
			}
		}
	}
	JOINT Spine
	{
		OFFSET -0.0000 9.7000 0.0000
		CHANNELS 3 Xrotation Yrotation Zrotation
		JOINT Spine1
		{
			OFFSET -0.0000 11.2000 0.0000
			CHANNELS 3 Xrotation Yrotation Zrotation
			JOINT Spine2
			{
				OFFSET -0.0000 12.1000 0.0000
				CHANNELS 3 Xrotation Yrotation Zrotation
				JOINT Spine3
				{
					OFFSET -0.0000 11.7000 1.2000
					CHANNELS 3 Xrotation Yrotation Zrotation
					JOINT Neck
					{
						OFFSET -0.0000 12.0000 -1.2000
						CHANNELS 3 Xrotation Yrotation Zrotation
						JOINT Head
						{
							OFFSET -0.0000 10.0000 0.0000
							CHANNELS 3 Xrotation Yrotation Zrotation
							End Site
							{
								OFFSET -0.0000 20.0000 0.0000
							}
						}
					}
					JOINT RightShoulder
					{
						OFFSET -4.9000 4.0000 -1.2000
						CHANNELS 3 Xrotation Yrotation Zrotation
						JOINT RightUpperArm
						{
							OFFSET -15.6000 0.0000 0.0000
							CHANNELS 3 Xrotation Yrotation Zrotation
							JOINT RightLowerArm
							{
								OFFSET -25.9000 0.0000 0.0000
								CHANNELS 3 Xrotation Yrotation Zrotation
								JOINT RightHand
								{
									OFFSET -28.4000 0.0000 0.0000
									CHANNELS 3 Xrotation Yrotation Zrotation
									JOINT RightThumbFinger
									{
										OFFSET -3.4000 0.3000 4.2000
										CHANNELS 3 Xrotation Yrotation Zrotation
										JOINT RightThumbFinger1
										{
											OFFSET -3.5000 0.0000 3.5000
											CHANNELS 3 Xrotation Yrotation Zrotation
											JOINT RightThumbFinger2
											{
												OFFSET -2.5000 0.0000 2.4000
												CHANNELS 3 Xrotation Yrotation Zrotation
												End Site
												{
													OFFSET -2.1450 0.0000 2.0592
												}
											}
										}
									}
									JOINT RightIndexFinger
									{
										OFFSET -4.4000 0.7000 2.6000
										CHANNELS 3 Xrotation Yrotation Zrotation
										JOINT RightIndexFinger1
										{
											OFFSET -7.0000 -0.1000 1.4000
											CHANNELS 3 Xrotation Yrotation Zrotation
											JOINT RightIndexFinger2
											{
												OFFSET -5.0000 -0.2000 0.0000
												CHANNELS 3 Xrotation Yrotation Zrotation
												JOINT RightIndexFinger3
												{
													OFFSET -2.7000 -0.2000 0.0000
													CHANNELS 3 Xrotation Yrotation Zrotation
													End Site
													{
														OFFSET -2.3814 -0.1764 0.0000
													}
												}
											}
										}
									}
									JOINT RightMiddleFinger
									{
										OFFSET -4.6000 0.7000 1.0000
										CHANNELS 3 Xrotation Yrotation Zrotation
										JOINT RightMiddleFinger1
										{
											OFFSET -7.0000 -0.1000 0.4000
											CHANNELS 3 Xrotation Yrotation Zrotation
											JOINT RightMiddleFinger2
											{
												OFFSET -5.3000 -0.3000 0.0000
												CHANNELS 3 Xrotation Yrotation Zrotation
												JOINT RightMiddleFinger3
												{
													OFFSET -3.4000 -0.3000 0.0000
													CHANNELS 3 Xrotation Yrotation Zrotation
													End Site
													{
														OFFSET -2.9988 -0.2646 0.0000
													}
												}
											}
										}
									}
									JOINT RightRingFinger
									{
										OFFSET -4.5000 0.8000 -0.1000
										CHANNELS 3 Xrotation Yrotation Zrotation
										JOINT RightRingFinger1
										{
											OFFSET -6.3000 -0.1000 -0.7000
											CHANNELS 3 Xrotation Yrotation Zrotation
											JOINT RightRingFinger2
											{
												OFFSET -4.7000 -0.4000 0.0000
												CHANNELS 3 Xrotation Yrotation Zrotation
												JOINT RightRingFinger3
												{
													OFFSET -3.2000 -0.3000 0.0000
													CHANNELS 3 Xrotation Yrotation Zrotation
													End Site
													{
														OFFSET -2.8224 -0.2646 0.0000
													}
												}
											}
										}
									}
									JOINT RightPinkyFinger
									{
										OFFSET -4.3000 0.7000 -1.6000
										CHANNELS 3 Xrotation Yrotation Zrotation
										JOINT RightPinkyFinger1
										{
											OFFSET -5.6000 -0.1000 -1.5000
											CHANNELS 3 Xrotation Yrotation Zrotation
											JOINT RightPinkyFinger2
											{
												OFFSET -3.7000 -0.2000 0.0000
												CHANNELS 3 Xrotation Yrotation Zrotation
												JOINT RightPinkyFinger3
												{
													OFFSET -2.4000 -0.1000 0.0000
													CHANNELS 3 Xrotation Yrotation Zrotation
													End Site
													{
														OFFSET -2.1168 -0.0882 0.0000
													}
												}
											}
										}
									}
								}
							}
						}
					}
					JOINT LeftShoulder
					{
						OFFSET 4.9000 4.0000 -1.2000
						CHANNELS 3 Xrotation Yrotation Zrotation
						JOINT LeftUpperArm
						{
							OFFSET 15.6000 0.0000 0.0000
							CHANNELS 3 Xrotation Yrotation Zrotation
							JOINT LeftLowerArm
							{
								OFFSET 25.9000 0.0000 0.0000
								CHANNELS 3 Xrotation Yrotation Zrotation
								JOINT LeftHand
								{
									OFFSET 28.4000 0.0000 0.0000
									CHANNELS 3 Xrotation Yrotation Zrotation
									JOINT LeftThumbFinger
									{
										OFFSET 3.4000 0.3000 4.2000
										CHANNELS 3 Xrotation Yrotation Zrotation
										JOINT LeftThumbFinger1
										{
											OFFSET 3.5000 0.0000 3.5000
											CHANNELS 3 Xrotation Yrotation Zrotation
											JOINT LeftThumbFinger2
											{
												OFFSET 2.5000 0.0000 2.5000
												CHANNELS 3 Xrotation Yrotation Zrotation
												End Site
												{
													OFFSET 2.1450 0.0000 2.1450
												}
											}
										}
									}
									JOINT LeftIndexFinger
									{
										OFFSET 4.4000 0.7000 2.6000
										CHANNELS 3 Xrotation Yrotation Zrotation
										JOINT LeftIndexFinger1
										{
											OFFSET 7.0000 -0.1000 1.4000
											CHANNELS 3 Xrotation Yrotation Zrotation
											JOINT LeftIndexFinger2
											{
												OFFSET 5.0000 -0.2000 0.0000
												CHANNELS 3 Xrotation Yrotation Zrotation
												JOINT LeftIndexFinger3
												{
													OFFSET 2.7000 -0.2000 0.0000
													CHANNELS 3 Xrotation Yrotation Zrotation
													End Site
													{
														OFFSET 2.3814 -0.1764 0.0000
													}
												}
											}
										}
									}
									JOINT LeftMiddleFinger
									{
										OFFSET 4.6000 0.7000 1.0000
										CHANNELS 3 Xrotation Yrotation Zrotation
										JOINT LeftMiddleFinger1
										{
											OFFSET 7.0000 -0.1000 0.4000
											CHANNELS 3 Xrotation Yrotation Zrotation
											JOINT LeftMiddleFinger2
											{
												OFFSET 5.3000 -0.3000 0.0000
												CHANNELS 3 Xrotation Yrotation Zrotation
												JOINT LeftMiddleFinger3
												{
													OFFSET 3.4000 -0.3000 0.0000
													CHANNELS 3 Xrotation Yrotation Zrotation
													End Site
													{
														OFFSET 2.9988 -0.2646 0.0000
													}
												}
											}
										}
									}
									JOINT LeftRingFinger
									{
										OFFSET 4.5000 0.8000 -0.1000
										CHANNELS 3 Xrotation Yrotation Zrotation
										JOINT LeftRingFinger1
										{
											OFFSET 6.3000 -0.1000 -0.7000
											CHANNELS 3 Xrotation Yrotation Zrotation
											JOINT LeftRingFinger2
											{
												OFFSET 4.7000 -0.3000 0.0000
												CHANNELS 3 Xrotation Yrotation Zrotation
												JOINT LeftRingFinger3
												{
													OFFSET 3.2000 -0.2000 0.0000
													CHANNELS 3 Xrotation Yrotation Zrotation
													End Site
													{
														OFFSET 2.8224 -0.1764 0.0000
													}
												}
											}
										}
									}
									JOINT LeftPinkyFinger
									{
										OFFSET 4.3000 0.7000 -1.6000
										CHANNELS 3 Xrotation Yrotation Zrotation
										JOINT LeftPinkyFinger1
										{
											OFFSET 5.6000 -0.1000 -1.5000
											CHANNELS 3 Xrotation Yrotation Zrotation
											JOINT LeftPinkyFinger2
											{
												OFFSET 3.7000 -0.2000 0.1000
												CHANNELS 3 Xrotation Yrotation Zrotation
												JOINT LeftPinkyFinger3
												{
													OFFSET 2.4000 -0.1000 -0.1000
													CHANNELS 3 Xrotation Yrotation Zrotation
													End Site
													{
														OFFSET 2.1168 -0.0882 -0.0882
													}
												}
											}
										}
									}
								}
							}
						}
					}
				}
			}
		}
	}
}
MOTION
Frames: 11
Frame Time: 0.010417
6.47 111.02 5.75 -0.19 12.94 0.18 -2.14 -0.57 -0.69 5.36 3.59 -0.17 -2.99 -8.44 0.51 0.00 0.00 -0.00 1.39 8.48 -0.81 1.41 2.03 -0.02 -2.78 3.59 0.43 -0.00 -0.00 0.00 -0.22 0.31 -0.13 -0.25 0.37 -0.36 -0.26 0.41 -0.42 -0.26 0.40 -0.41 9.93 -10.07 2.90 8.43 -8.60 2.35 1.23 -2.57 -17.44 -21.25 12.75 18.01 -2.73 -0.05 1.24 7.28 -2.67 -0.14 12.08 -0.94 -0.61 4.75 -15.01 8.41 3.85 -20.12 15.24 -0.00 0.00 0.00 -0.00 2.00 0.19 -0.12 -0.00 3.43 -0.06 -0.01 1.70 -0.00 0.00 0.00 0.00 0.00 0.32 0.01 0.00 5.18 -0.01 0.01 2.59 -0.00 0.00 0.00 -0.34 -1.93 -10.00 -0.00 0.00 -0.00 -0.00 0.00 -0.00 -0.00 0.00 0.00 0.07 -4.00 1.04 0.83 0.20 12.42 0.43 0.16 6.35 10.27 -5.96 22.01 -19.98 -11.57 -17.80 -5.28 0.17 -1.85 2.40 21.99 5.27 28.75 -0.01 0.00 11.52 -1.85 -4.72 17.47 -4.73 -5.93 0.00 0.00 0.00 -0.02 -2.00 -0.57 -0.29 0.04 -8.19 -0.13 0.04 -4.12 0.00 0.00 0.00 0.00 -0.01 -1.35 -0.01 -0.00 -14.59 0.00 0.00 -7.51 0.00 0.00 0.00 0.03 1.99 -0.79 0.35 -0.06 -10.26 0.17 -0.05 -5.21 0.00 0.00 0.00 0.22 3.98 -3.14 1.44 -0.75 -24.01 0.68 -0.57 -12.84 
6.47 111.02 5.75 -0.19 12.93 0.18 -2.14 -0.56 -0.69 5.36 3.59 -0.17 -2.99 -8.44 0.51 0.00 0.00 -0.00 1.39 8.50 -0.81 1.41 2.02 -0.02 -2.78 3.59 0.43 -0.00 -0.00 0.00 -0.20 0.31 -0.13 -0.24 0.38 -0.38 -0.26 0.41 -0.41 -0.26 0.40 -0.42 9.95 -10.06 2.90 8.43 -8.60 2.35 1.27 -2.56 -17.43 -21.23 12.78 18.00 -2.78 -0.06 1.25 7.27 -2.65 -0.14 12.09 -0.94 -0.62 4.76 -15.02 8.44 3.87 -20.11 15.29 -0.00 0.00 -0.00 -0.01 2.00 0.18 -0.11 -0.00 3.43 -0.06 -0.01 1.70 -0.00 0.00 -0.00 -0.00 0.00 0.31 0.01 0.00 5.19 -0.01 0.00 2.60 -0.00 0.00 -0.00 -0.35 -1.94 -10.01 0.00 0.00 -0.00 0.00 0.00 -0.00 -0.00 0.00 -0.00 0.08 -4.00 1.03 0.83 0.20 12.37 0.42 0.15 6.32 10.29 -5.96 22.00 -19.98 -11.58 -17.78 -5.29 0.18 -1.83 2.41 21.99 5.27 28.75 -0.01 0.00 11.52 -1.85 -4.71 17.48 -4.75 -5.92 -0.00 0.00 0.00 -0.03 -2.00 -0.57 -0.28 0.05 -8.16 -0.14 0.03 -4.11 -0.00 0.00 0.00 -0.01 -0.01 -1.34 0.00 0.01 -14.58 -0.01 -0.00 -7.51 -0.00 0.00 0.00 0.02 1.99 -0.79 0.35 -0.06 -10.27 0.18 -0.05 -5.21 -0.00 0.00 0.00 0.21 3.98 -3.13 1.45 -0.74 -24.01 0.68 -0.57 -12.84 
6.48 111.02 5.75 -0.19 12.92 0.18 -2.14 -0.55 -0.69 5.36 3.60 -0.17 -2.99 -8.45 0.51 0.00 0.00 -0.00 1.39 8.51 -0.81 1.41 2.02 -0.03 -2.79 3.59 0.44 -0.00 -0.00 0.00 -0.20 0.32 -0.14 -0.24 0.37 -0.37 -0.26 0.41 -0.43 -0.26 0.41 -0.42 9.97 -10.05 2.91 8.44 -8.58 2.34 1.30 -2.57 -17.42 -21.24 12.79 18.02 -2.75 -0.06 1.25 7.28 -2.65 -0.12 12.09 -0.94 -0.62 4.78 -15.02 8.46 3.86 -20.12 15.32 -0.00 -0.00 -0.00 -0.00 2.00 0.18 -0.13 -0.01 3.44 -0.06 -0.01 1.71 -0.00 -0.00 -0.00 0.01 0.00 0.31 0.00 -0.01 5.19 -0.01 0.01 2.60 -0.00 -0.00 -0.00 -0.35 -1.94 -10.01 0.00 0.00 -0.00 0.00 0.00 -0.00 -0.00 -0.00 -0.00 0.08 -3.99 1.03 0.83 0.19 12.32 0.41 0.15 6.29 10.33 -5.96 22.00 -19.99 -11.57 -17.78 -5.33 0.17 -1.86 2.37 22.01 5.32 28.75 0.00 -0.01 11.52 -1.85 -4.70 17.48 -4.75 -5.92 -0.00 0.00 0.00 -0.01 -2.00 -0.57 -0.29 0.05 -8.16 -0.14 0.03 -4.12 -0.00 0.00 0.00 0.00 0.01 -1.35 -0.00 -0.00 -14.58 -0.00 -0.01 -7.51 -0.00 0.00 0.00 0.03 2.00 -0.79 0.35 -0.07 -10.27 0.17 -0.05 -5.21 -0.00 0.00 0.00 0.22 3.99 -3.14 1.44 -0.75 -24.02 0.68 -0.57 -12.83 
6.48 111.02 5.75 -0.19 12.92 0.18 -2.14 -0.55 -0.69 5.35 3.60 -0.17 -2.98 -8.45 0.51 0.00 0.00 -0.00 1.39 8.51 -0.81 1.41 2.02 -0.03 -2.79 3.59 0.44 -0.00 -0.00 0.00 -0.20 0.31 -0.14 -0.24 0.38 -0.38 -0.25 0.41 -0.43 -0.26 0.41 -0.43 9.97 -10.04 2.91 8.47 -8.57 2.34 1.32 -2.56 -17.40 -21.23 12.83 18.01 -2.72 -0.06 1.27 7.30 -2.67 -0.07 12.09 -0.95 -0.61 4.77 -15.02 8.45 3.88 -20.12 15.32 0.00 0.00 0.00 -0.00 2.00 0.19 -0.12 -0.01 3.44 -0.06 -0.00 1.70 0.00 0.00 0.00 0.01 0.00 0.31 -0.00 -0.00 5.20 0.00 -0.00 2.59 0.00 0.00 0.00 -0.34 -1.94 -10.00 0.00 0.00 -0.00 0.00 0.00 -0.00 0.00 0.00 0.00 0.07 -3.99 1.04 0.84 0.19 12.32 0.41 0.15 6.29 10.36 -5.96 21.99 -20.00 -11.58 -17.79 -5.37 0.18 -1.85 2.35 22.05 5.31 28.75 -0.00 0.00 11.52 -1.87 -4.70 17.48 -4.75 -5.89 -0.00 0.00 0.00 -0.01 -2.01 -0.56 -0.29 0.04 -8.15 -0.13 0.03 -4.11 -0.00 0.00 0.00 0.00 -0.01 -1.34 -0.00 0.00 -14.57 -0.00 0.00 -7.51 -0.00 0.00 0.00 0.03 1.99 -0.79 0.35 -0.07 -10.27 0.17 -0.05 -5.21 -0.00 0.00 0.00 0.22 3.98 -3.13 1.46 -0.74 -23.99 0.67 -0.58 -12.82 
6.48 111.02 5.75 -0.19 12.91 0.18 -2.14 -0.53 -0.69 5.35 3.60 -0.17 -2.98 -8.45 0.51 0.00 0.00 -0.00 1.39 8.52 -0.82 1.42 2.02 -0.02 -2.80 3.59 0.44 -0.00 -0.00 0.00 -0.20 0.32 -0.14 -0.23 0.38 -0.39 -0.26 0.41 -0.43 -0.25 0.41 -0.44 9.99 -10.03 2.90 8.47 -8.57 2.34 1.36 -2.57 -17.39 -21.21 12.86 18.01 -2.72 -0.06 1.27 7.35 -2.68 0.02 12.12 -0.94 -0.60 4.79 -15.01 8.46 3.89 -20.10 15.34 0.00 0.00 0.00 -0.00 2.00 0.19 -0.12 -0.00 3.44 -0.06 -0.00 1.71 0.00 0.00 0.00 0.01 0.00 0.31 0.00 -0.01 5.19 0.00 0.00 2.59 0.00 0.00 0.00 -0.34 -1.94 -10.00 0.00 0.00 -0.00 0.00 0.00 -0.00 0.00 0.00 0.00 0.08 -4.00 1.03 0.83 0.21 12.34 0.41 0.15 6.29 10.39 -5.95 22.00 -20.03 -11.58 -17.78 -5.40 0.17 -1.86 2.34 22.07 5.32 28.77 0.00 0.00 11.53 -1.89 -4.70 17.48 -4.79 -5.89 0.00 0.00 0.00 -0.01 -2.01 -0.56 -0.29 0.04 -8.17 -0.14 0.03 -4.13 0.00 0.00 0.00 0.00 -0.01 -1.34 0.00 0.01 -14.58 -0.00 -0.01 -7.52 0.00 0.00 0.00 0.03 1.99 -0.79 0.35 -0.07 -10.26 0.17 -0.05 -5.22 0.00 0.00 0.00 0.22 3.98 -3.12 1.45 -0.74 -23.96 0.68 -0.57 -12.80 
6.48 111.02 5.75 -0.19 12.91 0.18 -2.14 -0.53 -0.70 5.35 3.60 -0.16 -2.98 -8.45 0.51 0.00 0.00 -0.00 1.39 8.52 -0.82 1.42 2.02 -0.02 -2.80 3.59 0.44 -0.00 -0.00 0.00 -0.19 0.32 -0.15 -0.24 0.37 -0.40 -0.25 0.42 -0.44 -0.26 0.41 -0.43 10.00 -10.03 2.89 8.48 -8.56 2.33 1.39 -2.57 -17.38 -21.23 12.87 18.02 -2.71 -0.06 1.27 7.37 -2.69 0.05 12.13 -0.93 -0.61 4.80 -15.03 8.48 3.90 -20.11 15.37 0.00 0.00 -0.00 -0.01 2.00 0.19 -0.11 -0.00 3.43 -0.06 0.00 1.70 0.00 0.00 -0.00 -0.01 0.00 0.31 0.00 -0.00 5.18 0.01 0.00 2.58 0.00 0.00 -0.00 -0.34 -1.93 -10.00 -0.00 0.00 -0.00 -0.00 0.00 -0.00 0.00 0.00 -0.00 0.07 -3.99 1.04 0.84 0.20 12.37 0.42 0.15 6.32 10.43 -5.95 21.98 -20.04 -11.59 -17.77 -5.41 0.18 -1.88 2.38 22.16 5.29 28.78 0.00 -0.00 11.52 -1.88 -4.70 17.50 -4.78 -5.91 0.00 0.00 0.00 -0.02 -1.99 -0.57 -0.28 0.04 -8.17 -0.14 0.03 -4.13 0.00 0.00 0.00 0.00 0.01 -1.34 -0.00 -0.01 -14.53 0.00 -0.00 -7.49 0.00 0.00 0.00 0.03 2.00 -0.79 0.34 -0.07 -10.23 0.17 -0.04 -5.20 0.00 0.00 0.00 0.22 3.99 -3.11 1.44 -0.74 -23.90 0.68 -0.57 -12.77 
6.48 111.02 5.75 -0.19 12.91 0.18 -2.14 -0.53 -0.70 5.35 3.60 -0.16 -2.98 -8.45 0.51 0.00 0.00 -0.00 1.39 8.52 -0.82 1.42 2.02 -0.02 -2.80 3.59 0.44 -0.00 -0.00 0.00 -0.19 0.32 -0.15 -0.23 0.38 -0.41 -0.26 0.41 -0.44 -0.25 0.41 -0.44 10.01 -10.01 2.89 8.48 -8.56 2.32 1.41 -2.58 -17.37 -21.21 12.90 18.02 -2.75 -0.06 1.28 7.35 -2.70 0.10 12.13 -0.92 -0.61 4.80 -15.03 8.48 3.90 -20.12 15.37 0.00 -0.00 -0.00 -0.01 2.00 0.19 -0.11 -0.00 3.43 -0.06 -0.01 1.70 0.00 -0.00 -0.00 0.01 0.00 0.31 0.00 -0.00 5.18 -0.00 0.00 2.58 0.00 -0.00 -0.00 -0.34 -1.93 -10.01 -0.00 0.00 0.00 -0.00 0.00 0.00 0.00 -0.00 -0.00 0.08 -3.99 1.04 0.83 0.19 12.38 0.41 0.15 6.32 10.46 -5.95 21.98 -20.05 -11.59 -17.81 -5.41 0.17 -1.87 2.43 22.23 5.26 28.78 -0.00 -0.01 11.53 -1.87 -4.70 17.50 -4.78 -5.90 -0.00 0.00 -0.00 -0.02 -2.00 -0.57 -0.28 0.04 -8.18 -0.15 0.04 -4.12 -0.00 0.00 -0.00 0.00 -0.01 -1.34 0.00 0.01 -14.53 -0.00 -0.01 -7.49 -0.00 0.00 -0.00 0.03 2.00 -0.79 0.35 -0.08 -10.24 0.18 -0.05 -5.19 -0.00 0.00 -0.00 0.21 3.99 -3.11 1.44 -0.74 -23.90 0.69 -0.56 -12.77 
6.48 111.02 5.75 -0.19 12.91 0.18 -2.14 -0.53 -0.70 5.35 3.60 -0.16 -2.98 -8.45 0.51 0.00 0.00 -0.00 1.39 8.52 -0.82 1.41 2.02 -0.02 -2.79 3.59 0.44 -0.00 -0.00 0.00 -0.19 0.32 -0.15 -0.23 0.38 -0.41 -0.25 0.41 -0.45 -0.25 0.41 -0.45 10.03 -10.00 2.88 8.50 -8.54 2.33 1.44 -2.58 -17.35 -21.18 12.92 18.02 -2.81 -0.06 1.30 7.35 -2.71 0.10 12.15 -0.94 -0.60 4.80 -15.03 8.48 3.88 -20.13 15.36 0.00 0.00 -0.00 -0.01 2.00 0.19 -0.11 -0.01 3.43 -0.06 0.00 1.70 0.00 0.00 -0.00 -0.01 -0.01 0.31 0.01 0.00 5.15 -0.00 0.00 2.58 0.00 0.00 -0.00 -0.34 -1.95 -10.01 -0.00 0.00 0.00 -0.00 0.00 0.00 0.00 0.00 -0.00 0.08 -4.00 1.05 0.83 0.21 12.38 0.42 0.15 6.33 10.48 -5.95 21.99 -20.06 -11.58 -17.85 -5.45 0.18 -1.87 2.49 22.29 5.24 28.79 -0.00 -0.01 11.54 -1.87 -4.70 17.49 -4.77 -5.89 -0.00 -0.00 -0.00 -0.02 -2.00 -0.57 -0.28 0.05 -8.17 -0.15 0.04 -4.10 -0.00 -0.00 -0.00 0.00 0.00 -1.34 -0.01 0.00 -14.54 -0.00 -0.01 -7.48 -0.00 -0.00 -0.00 0.03 2.00 -0.79 0.34 -0.07 -10.23 0.18 -0.05 -5.19 -0.00 -0.00 -0.00 0.21 3.99 -3.10 1.45 -0.73 -23.87 0.67 -0.57 -12.75 
6.49 111.02 5.75 -0.19 12.91 0.18 -2.14 -0.53 -0.70 5.35 3.60 -0.17 -2.98 -8.45 0.53 0.00 0.00 -0.00 1.39 8.54 -0.82 1.41 2.01 -0.02 -2.79 3.59 0.44 -0.00 -0.00 0.00 -0.19 0.32 -0.16 -0.23 0.37 -0.41 -0.25 0.42 -0.45 -0.23 0.41 -0.45 10.03 -9.98 2.87 8.51 -8.53 2.33 1.47 -2.59 -17.35 -21.20 12.92 18.02 -2.82 -0.06 1.29 7.34 -2.71 0.11 12.15 -0.94 -0.60 4.80 -15.02 8.49 3.90 -20.10 15.39 0.00 0.00 -0.00 -0.01 1.99 0.19 -0.12 -0.01 3.45 -0.05 -0.00 1.72 0.00 0.00 -0.00 0.01 -0.01 0.31 -0.01 -0.00 5.16 0.01 0.00 2.58 0.00 0.00 -0.00 -0.34 -1.95 -10.01 -0.00 -0.00 0.00 -0.00 -0.00 0.00 0.00 0.00 -0.00 0.08 -4.00 1.04 0.83 0.20 12.35 0.42 0.15 6.32 10.51 -5.96 21.97 -20.09 -11.57 -17.84 -5.45 0.18 -1.87 2.51 22.32 5.22 28.81 0.01 -0.00 11.54 -1.88 -4.70 17.52 -4.77 -5.92 -0.00 0.00 -0.00 -0.02 -1.99 -0.57 -0.28 0.03 -8.14 -0.14 0.04 -4.12 -0.00 0.00 -0.00 0.00 0.00 -1.33 -0.01 -0.00 -14.52 0.00 -0.00 -7.48 -0.00 0.00 -0.00 0.03 2.00 -0.78 0.35 -0.08 -10.24 0.17 -0.05 -5.19 -0.00 0.00 -0.00 0.21 3.99 -3.10 1.44 -0.74 -23.89 0.68 -0.57 -12.77 
6.49 111.02 5.75 -0.19 12.91 0.18 -2.13 -0.53 -0.70 5.34 3.60 -0.17 -2.98 -8.45 0.53 0.00 0.00 -0.00 1.39 8.54 -0.82 1.41 2.01 -0.02 -2.79 3.59 0.44 -0.00 -0.00 0.00 -0.19 0.32 -0.16 -0.22 0.37 -0.40 -0.24 0.42 -0.46 -0.25 0.41 -0.45 10.04 -9.97 2.87 8.52 -8.53 2.32 1.51 -2.59 -17.34 -21.20 12.96 18.03 -2.83 -0.06 1.29 7.31 -2.73 0.08 12.16 -0.93 -0.60 4.81 -15.03 8.51 3.92 -20.09 15.43 0.00 0.00 -0.00 -0.01 2.00 0.19 -0.12 -0.00 3.47 -0.06 -0.00 1.72 0.00 0.00 -0.00 -0.01 0.00 0.32 0.01 0.00 5.18 -0.01 0.00 2.60 0.00 0.00 -0.00 -0.35 -1.94 -10.00 -0.00 0.00 -0.00 -0.00 0.00 -0.00 0.00 0.00 -0.00 0.07 -3.99 1.03 0.83 0.20 12.32 0.41 0.14 6.30 10.55 -5.96 21.97 -20.12 -11.57 -17.89 -5.50 0.18 -1.86 2.52 22.36 5.26 28.81 -0.00 -0.00 11.54 -1.88 -4.71 17.52 -4.77 -5.91 -0.00 0.00 0.00 -0.02 -1.99 -0.57 -0.28 0.04 -8.16 -0.14 0.04 -4.10 -0.00 0.00 0.00 0.01 0.00 -1.34 -0.00 -0.00 -14.51 0.00 0.00 -7.48 -0.00 0.00 0.00 0.03 2.00 -0.79 0.35 -0.07 -10.23 0.17 -0.05 -5.20 -0.00 0.00 0.00 0.22 3.99 -3.11 1.44 -0.73 -23.90 0.68 -0.58 -12.76 
6.49 111.02 5.75 -0.19 12.91 0.18 -2.13 -0.53 -0.70 5.34 3.60 -0.17 -2.98 -8.44 0.53 -0.00 0.00 -0.00 1.39 8.52 -0.82 1.41 2.02 -0.02 -2.79 3.60 0.44 0.00 0.00 -0.00 -0.19 0.32 -0.16 -0.22 0.37 -0.42 -0.23 0.42 -0.46 -0.25 0.41 -0.45 10.05 -9.96 2.86 8.52 -8.52 2.32 1.54 -2.60 -17.34 -21.16 13.00 18.04 -2.83 -0.06 1.28 7.31 -2.74 0.03 12.16 -0.93 -0.61 4.82 -15.02 8.52 3.91 -20.09 15.43 -0.00 -0.00 -0.00 -0.01 2.00 0.19 -0.11 -0.00 3.47 -0.06 -0.01 1.72 -0.00 -0.00 -0.00 -0.01 0.01 0.31 0.01 0.00 5.19 0.00 -0.01 2.59 -0.00 -0.00 -0.00 -0.35 -1.93 -10.01 -0.00 0.00 0.00 -0.00 0.00 0.00 -0.00 -0.00 -0.00 0.07 -3.99 1.03 0.83 0.20 12.33 0.41 0.14 6.29 10.60 -5.96 21.97 -20.16 -11.57 -17.91 -5.56 0.18 -1.89 2.51 22.42 5.27 28.82 -0.01 -0.00 11.55 -1.86 -4.69 17.51 -4.76 -5.92 -0.00 0.00 0.00 -0.02 -2.00 -0.57 -0.28 0.04 -8.16 -0.14 0.04 -4.12 -0.00 0.00 0.00 0.00 -0.01 -1.33 0.00 0.00 -14.51 -0.01 0.00 -7.47 -0.00 0.00 0.00 0.04 1.99 -0.78 0.34 -0.07 -10.24 0.17 -0.05 -5.19 -0.00 0.00 0.00 0.22 3.99 -3.10 1.45 -0.75 -23.90 0.67 -0.56 -12.76 
